<?xml version="1.0" encoding="utf-8"?>
<!-- Generator: Adobe Illustrator 19.0.0, SVG Export Plug-In . SVG Version: 6.00 Build 0)  -->
<svg version="1.1" id="图层_1" xmlns="http://www.w3.org/2000/svg" xmlns:xlink="http://www.w3.org/1999/xlink" x="0px" y="0px"
	 viewBox="0 0 150 50" enable-background="new 0 0 150 50" xml:space="preserve">
<g id="XMLID_332_">
	<g id="XMLID_348_">
		<g id="XMLID_381_">
			<path id="XMLID_394_" fill="#3D4C66" d="M77.954,34.906c0,0.508-0.303,0.956-0.909,1.345c-0.745,0.478-1.793,0.717-3.144,0.717
				h-2.56l-0.001-0.745h2.514c0.903,0,1.598-0.164,2.085-0.492c0.397-0.268,0.613-0.482,0.596-1.075V33.99
				c-0.002-0.651-0.368-0.879-0.954-1.082c-0.586-0.204-1.247-0.306-1.982-0.306h-2.936v8.852c0,0.179-1.419,0.189-1.419,0v-9.149
				c0-0.299,0.234-0.448,0.702-0.448h3.66c1.105,0,2.062,0.164,2.868,0.493c0.926,0.378,1.419,0.901,1.479,1.569V34.906z"/>
			<path id="XMLID_392_" fill="#3D4C66" d="M149,34.906c0,0.508-0.303,0.956-0.909,1.345c-0.745,0.478-1.793,0.717-3.144,0.717
				h-2.56l-0.001-0.745h2.514c0.903,0,1.598-0.164,2.085-0.492c0.397-0.268,0.613-0.482,0.596-1.075V33.99
				c-0.002-0.651-0.368-0.879-0.954-1.082c-0.586-0.204-1.247-0.306-1.982-0.306h-2.936v8.852c0,0.179-1.419,0.189-1.419,0v-9.149
				c0-0.299,0.234-0.448,0.702-0.448h3.66c1.105,0,2.062,0.164,2.868,0.493c0.926,0.378,1.419,0.901,1.479,1.569V34.906z"/>
			<path id="XMLID_389_" fill="#3D4C66" d="M91.728,41.454c0,0.179-1.419,0.189-1.419,0v-7.553c0-0.417-0.336-0.735-1.006-0.955
				c-0.541-0.179-1.191-0.268-1.952-0.268c-0.931,0-1.672,0.124-2.222,0.373c-0.49,0.219-0.736,0.487-0.736,0.805v7.598
				c0,0.179-1.389,0.189-1.389,0v-7.599c0-0.527,0.334-0.984,1.002-1.373c0.809-0.467,1.926-0.701,3.353-0.701
				c1.087,0,2.045,0.169,2.873,0.507c0.937,0.388,1.436,0.905,1.496,1.551V41.454z M89.637,36.025h-4.647v-0.896h4.647V36.025z"/>
			<path id="XMLID_386_" fill="#3D4C66" d="M135.313,41.491c0,0.179-1.419,0.189-1.419,0v-7.553c0-0.417-0.335-0.735-1.006-0.955
				c-0.541-0.179-1.191-0.268-1.952-0.268c-0.931,0-1.672,0.124-2.222,0.373c-0.49,0.219-0.736,0.487-0.736,0.805v7.598
				c0,0.179-1.389,0.189-1.389,0v-7.599c0-0.527,0.334-0.984,1.002-1.373c0.809-0.467,1.926-0.701,3.353-0.701
				c1.087,0,2.045,0.169,2.873,0.507c0.937,0.388,1.436,0.905,1.496,1.551V41.491z M133.222,36.062h-4.647v-0.896h4.647V36.062z"/>
			<path id="XMLID_384_" fill="#3D4C66" d="M105.198,41.448h-4.075c-1.514,0-2.899-0.011-3.486-0.22
				c-0.807-0.289-0.876-0.955-0.876-1.812v-7.565c0-0.169,1.419-0.179,1.419,0v7.656c0.04,0.408-0.096,0.7,0.441,0.986
				c0.597,0.319,2.089,0.251,2.774,0.251l3.803-0.042L105.198,41.448z"/>
			<path id="XMLID_382_" fill="#3D4C66" d="M121.043,41.454c0,0.169-1.419,0.179-1.419,0v-8.702l-3.436,4.421
				c-0.224,0.277-0.359,0.418-0.598,0.418c-0.249,0-0.498-0.139-0.747-0.418l-3.481-4.459v8.739c0,0.179-1.419,0.189-1.419,0v-9.3
				c0-0.299,0.234-0.448,0.702-0.448h1.06c0.329,0,0.553,0.105,0.672,0.315l3.148,3.675l3.053-3.692
				c0.05-0.09,0.139-0.159,0.269-0.209c0.129-0.05,0.264-0.075,0.403-0.075h1.076c0.249,0,0.431,0.03,0.545,0.09
				c0.115,0.06,0.172,0.249,0.172,0.419V41.454z"/>
		</g>
		<g id="XMLID_349_">
			<path id="XMLID_375_" fill="#3D4C66" d="M70.644,9.732h11.997c1.022,0.094,1.488,0.558,1.395,1.395v12.766
				c0.093,1.209-0.418,1.767-1.534,1.674H70.644c-0.837,0.093-1.302-0.373-1.395-1.395V11.127
				C69.342,10.198,69.807,9.732,70.644,9.732z M74.271,10.569h-3.348c-0.465,0-0.744,0.279-0.837,0.837v12.487
				c0,0.651,0.279,0.93,0.837,0.837h11.439c0.651,0.093,0.93-0.186,0.837-0.837V11.406c0.093-0.558-0.186-0.837-0.837-0.837h-7.114
				l-0.698,1.395h4.603c1.395,0,1.906,0.512,1.535,1.534c-0.744,1.116-1.674,2-2.79,2.65c1.589,1.032,2.947,1.674,4.603,2.092
				l-0.279,0.697c-1.674-0.464-3.348-1.209-5.022-2.232c-2.047,1.116-3.641,1.953-5.594,2.232l-0.139-0.697
				c2.046-0.372,3.455-1.162,5.036-2.092c-1.302-0.93-2.326-1.813-3.069-2.65c-0.465,0.558-0.854,0.939-1.691,1.497l-0.419-0.697
				C72.813,13.183,73.62,12.058,74.271,10.569z M79.719,22.364l-0.199,0.783c-2.019-0.531-3.623-0.954-5.799-1.261l0.188-0.773
				C76.042,21.436,77.402,21.706,79.719,22.364z M79.014,12.801h-5.022c0.743,0.931,1.813,1.86,3.208,2.79
				c1.022-0.558,1.859-1.255,2.511-2.092C79.991,13.034,79.758,12.801,79.014,12.801z M74.882,19.292
				c1.615,0.11,2.69,0.24,4.376,0.619l-0.181,0.766c-1.617-0.385-2.807-0.569-4.376-0.656L74.882,19.292z"/>
			<path id="XMLID_366_" fill="#3D4C66" d="M90.787,9.804h7.254v0.837h-0.279v7.254h-0.837v-0.976l-6.556,0.976v-0.837l1.256-0.139
				v-6.277h-0.837V9.804z M90.87,20.118c1.59-0.574,3.078-1.365,4.38-2.295l0.344,0.697c-1.275,0.911-2.77,1.793-4.635,2.436
				L90.87,20.118z M96.506,21.032l0.418,0.813c-1.674,1.395-3.659,2.442-5.983,3.372l-0.071-0.867
				C93.195,23.512,94.901,22.325,96.506,21.032z M96.925,10.641h-4.464v1.395h4.464V10.641z M96.925,12.873h-4.464v1.395h4.464
				V12.873z M96.925,15.105h-4.464v1.674l4.464-0.558V15.105z M101.668,16.847l0.209,0.642c-0.797,0.543-1.883,1.032-3.278,1.59
				v0.418c0.558,0.652,1.069,1.163,1.534,1.534c1.767-0.743,3.348-1.674,4.743-2.79l0.314,0.695
				c-1.302,1.116-2.593,1.909-4.359,2.653c1.686,1.439,3.29,2.764,4.858,3.161l-0.126,0.756c-2.418-0.652-4.547-2.428-6.964-4.754
				v4.888h-0.837v-6.283c-0.373,0.186-1.15,0.356-1.787,0.539l-0.181-0.706C97.532,18.774,99.686,17.923,101.668,16.847z
				 M104.179,9.804c1.022,0,1.488,0.373,1.395,1.116c0,0.837-0.791,2.092-2.371,3.766c0.837,0.837,1.463,1.165,2.386,1.746
				l-0.217,0.843c-0.923-0.497-2.191-1.334-2.866-2.032c-1.395,0.931-2.286,1.474-3.402,2.032l-0.418-0.697
				c1.209-0.558,2.007-1.055,3.123-1.892c-0.744-0.743-1.442-1.534-2.092-2.371l0.697-0.558c0.558,0.652,1.256,1.442,2.092,2.371
				c1.022-1.022,1.72-1.906,2.092-2.65c0.279-0.558,0.093-0.837-0.558-0.837h-4.324V9.804H104.179z"/>
			<path id="XMLID_359_" fill="#3D4C66" d="M135.491,9.749l0.837,0.279c-0.465,0.931-1.07,2.047-1.813,3.348l4.712-0.012
				c0.226-0.001,0.409-0.183,0.41-0.409l0.002-0.594l0.936,0.004l-0.001,0.999c0,0.469-0.38,0.849-0.849,0.849l-5.489,0
				c-0.931,0.094-1.21-0.185-0.837-0.837C134.328,11.981,135.025,10.773,135.491,9.749z M135.396,15.033h3.627
				c1.116,0,1.627,0.558,1.535,1.674v7.812c0.093,1.209-0.963,1.569-3.697,0.42l0.308-0.616c1.919,0.769,2.57,0.824,2.553-0.083
				v-2.79h-5.301v4.045h-0.837v-8.649C133.582,15.638,134.186,15.033,135.396,15.033z M138.883,15.87h-3.488
				c-0.652,0-0.977,0.373-0.977,1.116v0.837h5.301v-0.976C139.813,16.196,139.534,15.87,138.883,15.87z M139.72,18.66h-5.301v1.953
				h5.301V18.66z M142.789,9.732v2.929c1.859-0.464,2.734-0.743,4.223-1.674l0.279,0.837c-1.581,0.931-2.549,1.21-4.502,1.674v2.092
				c0,0.652,0.299,0.847,0.977,0.837c0,0,2.71,0.085,3.069,0c0.359-0.085,1.264-0.037,1.264-1.711h0.837
				c0.093,2.139-1.337,2.537-1.962,2.548c-0.625,0.011-3.208,0-3.208,0c-1.21,0.094-1.814-0.418-1.814-1.534V9.732H142.789z
				 M141.952,18.102h0.837v2.371c1.838-0.034,2.345-0.138,4.054-1.255l0.279,0.837c-1.427,0.946-2.278,1.109-4.333,1.255v2.511
				c0,0.743,0.372,1.069,1.116,0.976h2.929c0.93,0.093,1.348-0.744,1.256-2.511h0.837c0.093,2.325-0.558,3.441-1.953,3.348h-3.069
				c-1.302,0.093-1.953-0.465-1.953-1.674V18.102z"/>
			<g id="XMLID_350_">
				<rect id="XMLID_358_" x="114.652" y="21.729" fill="#3D4C66" width="9.574" height="0.837"/>
				<path id="XMLID_357_" fill="#3D4C66" d="M116.648,14.336h2.79v-0.837h-3.069v-2.088h2.256v-0.782h-4.282
					c-0.272,0-0.492-0.22-0.492-0.492v-0.41h-0.782v0.699c0,0.544,0.441,0.985,0.985,0.985h0.144h1.334v2.088h-3.182v0.837h3.042
					c-0.367,1.306-0.998,2.023-3.416,3.139l0.419,0.697c2.046-0.743,2.847-1.359,3.694-3.139c0.93,0.931,1.906,1.907,2.929,2.929
					l0.697-0.418C118.787,16.522,117.764,15.452,116.648,14.336z"/>
				<path id="XMLID_354_" fill="#3D4C66" d="M125.155,10.573h-3.484c-0.837,0-1.302,0.465-1.395,1.395v4.464
					c0,1.023,0.351,1.395,1.395,1.395h3.484c1.061,0.012,1.407-0.423,1.395-1.535v-4.324
					C126.561,11.019,126.177,10.573,125.155,10.573z M124.876,16.99h-2.926c-0.635,0.018-0.837-0.185-0.837-0.837v-3.906
					c0-0.558,0.279-0.837,0.837-0.837h2.926c0.651,0,0.854,0.188,0.837,0.837v3.906C125.733,16.788,125.588,17.007,124.876,16.99z"
					/>
				<path id="XMLID_351_" fill="#3D4C66" d="M124.181,18.66h-9.486c-0.837,0.094-1.302,0.558-1.395,1.395v4.185
					c0,1.022,0.446,1.407,1.395,1.395h9.486c1.092,0.002,1.407-0.398,1.395-1.395v-4.185
					C125.588,19.142,125.204,18.66,124.181,18.66z M124.74,23.273h-0.001v0.688c0.017,0.649-0.154,0.854-0.837,0.837h-8.928
					c-0.564,0.017-0.837-0.186-0.837-0.837v-0.679v-0.716v-0.837v-0.697v-0.698c0-0.558,0.279-0.837,0.837-0.837h8.928
					c0.651,0,0.854,0.261,0.837,0.837v0.688h0.001V23.273z"/>
			</g>
		</g>
	</g>
	<g id="XMLID_333_">
		<g id="彩色_5_">
			<path id="XMLID_341_" fill="#487FC1" d="M52.298,8.616l-6.017-0.925c-0.286-0.044-0.573,0.068-0.754,0.293L23.911,34.939
				c-0.181,0.225-0.227,0.53-0.123,0.799l2.603,6.702c0.225,0.58,0.995,0.699,1.384,0.213l25.431-31.703
				C53.903,10.082,53.399,8.785,52.298,8.616z"/>
			<path id="XMLID_340_" fill="#519FD8" d="M42.877,7.25L2.859,0.988c-1.1-0.172-1.974,0.911-1.573,1.95l2.192,5.679
				c0.104,0.27,0.344,0.463,0.629,0.508l34.071,5.326c0.288,0.045,0.577-0.068,0.758-0.296l4.447-5.604
				C43.77,8.066,43.489,7.345,42.877,7.25z"/>
			<path id="XMLID_339_" fill="#BDE3F8" d="M12.698,11.766l-7.121-1.154c-0.617-0.1-1.109,0.507-0.883,1.09l14.651,37.848
				c0.402,1.038,1.777,1.252,2.476,0.385l3.818-4.741c0.181-0.225,0.229-0.53,0.124-0.799l-12.44-32.123
				C13.219,12.005,12.981,11.812,12.698,11.766z"/>
			<g id="XMLID_334_">
				<path id="XMLID_336_" fill="#1B2853" d="M29.712,21.477c0.544-0.302,0.557-1.08,0.023-1.4l-4.063-2.437
					c-0.248-0.149-0.556-0.154-0.809-0.013l-4.147,2.305c-0.541,0.301-0.554,1.075-0.023,1.394l4.07,2.438
					c0.248,0.148,0.556,0.153,0.808,0.013L29.712,21.477z M21.456,20.5l3.431-1.908c0.163-0.091,0.363,0.029,0.36,0.216
					l-0.012,0.771l-0.05,3.006c-0.003,0.187-0.207,0.3-0.367,0.204l-3.366-2.007C21.344,20.718,21.346,20.561,21.456,20.5z"/>
				<path id="XMLID_335_" fill="#EF821A" d="M26.778,19.097l1.954,1.171c0.403,0.241,0.393,0.828-0.017,1.057l-1.992,1.107
					c-0.411,0.228-0.914-0.074-0.906-0.543l0.037-2.278C25.862,19.141,26.376,18.856,26.778,19.097z"/>
			</g>
		</g>
	</g>
</g>
</svg>
